<svg xmlns="http://www.w3.org/2000/svg" viewBox="0 0 136.1 108.9"><linearGradient id="a" gradientUnits="userSpaceOnUse" x1="23.401" y1="31.775" x2="51.892" y2="31.775"><stop offset="0" stop-color="#ed70a8"/><stop offset=".5" stop-color="#e72973"/><stop offset="1" stop-color="#a02584"/></linearGradient><path fill="none" stroke="url(#a)" stroke-width="4.386" stroke-linecap="round" stroke-miterlimit="10" d="M49.7 51.4L25.6 12.1"/><linearGradient id="b" gradientUnits="userSpaceOnUse" x1="56.926" y1="40.52" x2="126.969" y2="40.52"><stop offset="0" stop-color="#ed70a8"/><stop offset=".5" stop-color="#e72973"/><stop offset="1" stop-color="#a02584"/></linearGradient><path d="M75.9 36.6v32.3h26.8c22.1-6 22.1-28.2 22.1-28.2 0-27.4-22.9-28.6-22.9-28.6H59.1" fill="none" stroke="url(#b)" stroke-width="4.386" stroke-linecap="round" stroke-miterlimit="10"/><linearGradient id="c" gradientUnits="userSpaceOnUse" x1="9.854" y1="40.591" x2="51.275" y2="40.591"><stop offset="0" stop-color="#ed70a8"/><stop offset=".5" stop-color="#e72973"/><stop offset="1" stop-color="#a02584"/></linearGradient><path fill="none" stroke="url(#c)" stroke-width="4.386" stroke-linecap="round" stroke-miterlimit="10" d="M49.1 69L12 12.1"/><linearGradient id="d" gradientUnits="userSpaceOnUse" x1="56.926" y1="57.262" x2="117.038" y2="57.262"><stop offset="0" stop-color="#ed70a8"/><stop offset=".5" stop-color="#e72973"/><stop offset="1" stop-color="#a02584"/></linearGradient><path d="M84.6 36.6l.1 22h15.6s12-3.1 14.2-15.4c0 0 3.6-16.2-13.2-20.1H59.1v68.2" fill="none" stroke="url(#d)" stroke-width="4.386" stroke-linecap="round" stroke-miterlimit="10"/><linearGradient id="e" gradientUnits="userSpaceOnUse" x1="47.506" y1="23.462" x2="51.892" y2="23.462"><stop offset="0" stop-color="#ed70a8"/><stop offset=".5" stop-color="#e72973"/><stop offset="1" stop-color="#a02584"/></linearGradient><path fill="none" stroke="url(#e)" stroke-width="4.386" stroke-linecap="round" stroke-miterlimit="10" d="M49.7 12.1v22.7"/><linearGradient id="f" gradientUnits="userSpaceOnUse" x1="46.889" y1="88.243" x2="51.275" y2="88.243"><stop offset="0" stop-color="#ed70a8"/><stop offset=".5" stop-color="#e72973"/><stop offset="1" stop-color="#a02584"/></linearGradient><path fill="none" stroke="url(#f)" stroke-width="4.386" stroke-linecap="round" stroke-miterlimit="10" d="M49.1 76.9v22.7"/></svg>